<svg width="20" height="20" viewBox="0 0 20 20" fill="none" xmlns="http://www.w3.org/2000/svg">
<path fill-rule="evenodd" clip-rule="evenodd" d="M6.42267 3.57709C6.74811 3.90252 6.74811 4.43016 6.42267 4.7556L4.51193 6.66634H13.3334C16.0948 6.66634 18.3334 8.90492 18.3334 11.6663C18.3334 14.4278 16.0948 16.6663 13.3334 16.6663H9.16675C8.70651 16.6663 8.33341 16.2932 8.33341 15.833C8.33341 15.3728 8.70651 14.9997 9.16675 14.9997H13.3334C15.1744 14.9997 16.6667 13.5073 16.6667 11.6663C16.6667 9.82539 15.1744 8.33301 13.3334 8.33301H4.51193L6.42267 10.2438C6.74811 10.5692 6.74811 11.0968 6.42267 11.4223C6.09723 11.7477 5.5696 11.7477 5.24416 11.4223L1.91083 8.08893C1.58539 7.76349 1.58539 7.23586 1.91083 6.91042L5.24416 3.57709C5.5696 3.25165 6.09723 3.25165 6.42267 3.57709Z" fill="#0077FF"/>
</svg>
