<svg width="20" height="20" viewBox="0 0 20 20" fill="none" xmlns="http://www.w3.org/2000/svg">
<path fill-rule="evenodd" clip-rule="evenodd" d="M2.74413 2.74408C3.06957 2.41864 3.59721 2.41864 3.92264 2.74408L17.256 16.0774C17.5814 16.4028 17.5814 16.9305 17.256 17.2559C16.9305 17.5814 16.4029 17.5814 16.0775 17.2559L13.731 14.9094C12.6186 15.4509 11.3548 15.8333 10.0001 15.8333C7.40876 15.8333 5.13739 14.4361 3.57569 13.1416C2.78303 12.4845 2.14362 11.8294 1.70206 11.3386C1.4808 11.0926 1.30795 10.8865 1.18909 10.7401C1.12962 10.6669 1.08358 10.6085 1.05166 10.5674C1.0357 10.5469 1.02326 10.5306 1.01443 10.519L1.0039 10.5051L1.00068 10.5008L0.999584 10.4994C0.999411 10.4991 0.998836 10.4984 1.66672 10C0.998836 9.50163 0.998941 9.50149 0.999052 9.50134L0.999944 9.50015L1.0017 9.49781L1.00712 9.49062L1.02557 9.4664C1.04122 9.44598 1.06356 9.41714 1.09235 9.38066C1.14992 9.30771 1.2334 9.20409 1.34101 9.07612C1.55605 8.82042 1.86858 8.46614 2.26437 8.06426C2.89659 7.42232 3.75396 6.64593 4.7776 5.95605L2.74413 3.92259C2.4187 3.59715 2.4187 3.06951 2.74413 2.74408ZM5.98143 7.15989C4.96185 7.80708 4.09246 8.58327 3.45184 9.23374C3.16404 9.52597 2.92552 9.78963 2.74355 10C2.80335 10.0691 2.8693 10.1441 2.94113 10.2239C3.34295 10.6706 3.92393 11.2655 4.6393 11.8584C6.09368 13.0639 7.98898 14.1667 10.0001 14.1667C10.8487 14.1667 11.6793 13.9706 12.4701 13.6486L11.0777 12.2562C10.7513 12.4124 10.3855 12.5 10.0001 12.5C8.61934 12.5 7.50005 11.3807 7.50005 10C7.50005 9.61441 7.58771 9.24872 7.74386 8.92231L5.98143 7.15989ZM1.66672 10L0.999052 9.50134C0.778455 9.79697 0.778238 10.2027 0.998836 10.4984L1.66672 10ZM10.0001 5.83333C9.75575 5.83333 9.5131 5.84955 9.27246 5.88033C8.81594 5.93873 8.39852 5.61599 8.34012 5.15947C8.28173 4.70296 8.60446 4.28553 9.06098 4.22714C9.36852 4.18779 9.68186 4.16667 10.0001 4.16667C12.5914 4.16667 14.8627 5.56394 16.4244 6.85842C17.2171 7.51545 17.8565 8.17058 18.298 8.66141C18.5193 8.90737 18.6922 9.11349 18.811 9.25988C18.8705 9.33311 18.9165 9.39151 18.9484 9.4326C18.9644 9.45315 18.9769 9.46938 18.9857 9.48098L18.9962 9.49489L18.9994 9.49917L19.0005 9.50063C19.0007 9.50086 19.0013 9.50163 18.3334 10C19.0013 10.4984 19.0012 10.4985 19.0011 10.4986L18.9996 10.5006L18.9968 10.5043L18.9878 10.5163C18.9841 10.5211 18.9798 10.5268 18.9747 10.5334C18.9693 10.5405 18.963 10.5486 18.956 10.5577C18.9288 10.5928 18.8896 10.6427 18.8391 10.7055C18.738 10.8309 18.591 11.008 18.4025 11.2214C18.0261 11.6475 17.4806 12.2222 16.8004 12.8205C16.4548 13.1244 15.9283 13.0907 15.6243 12.7451C15.3204 12.3995 15.3541 11.8729 15.6997 11.569C16.3161 11.0268 16.8122 10.5042 17.1534 10.118C17.1896 10.077 17.224 10.0377 17.2566 10C17.1968 9.93087 17.1308 9.85594 17.059 9.77609C16.6572 9.32942 16.0762 8.73455 15.3608 8.14158C13.9064 6.93606 12.0111 5.83333 10.0001 5.83333ZM18.3334 10L19.0011 10.4986C19.2217 10.2029 19.2219 9.79726 19.0013 9.50163L18.3334 10Z" fill="#BDBDBD"/>
</svg>
