<svg width="20" height="20" viewBox="0 0 20 20" fill="none" xmlns="http://www.w3.org/2000/svg">
<g opacity="0.1">
<path fill-rule="evenodd" clip-rule="evenodd" d="M6.55054 1.40097C7.07551 1.09629 7.72462 1.10109 8.24502 1.41351L9.51674 2.17699C9.64629 2.25477 9.79456 2.29585 9.94567 2.29585H10.0554C10.2062 2.29585 10.3542 2.25494 10.4835 2.17749L10.9116 2.89245L10.4835 2.17749L11.7494 1.4195C12.268 1.10898 12.9141 1.10358 13.4378 1.40536L13.0217 2.12739L13.4378 1.40536L15.7183 2.71953C16.2434 3.02208 16.5628 3.58576 16.5526 4.19164L16.5277 5.67399C16.5251 5.82507 16.5637 5.97399 16.6393 6.10483L15.9177 6.52166L16.6393 6.10483L16.6941 6.19971C16.7695 6.33022 16.8789 6.43784 17.0106 6.51112L16.6054 7.23935L17.0106 6.51112L18.3032 7.23021C18.8306 7.52363 19.1582 8.07931 19.1596 8.68289L19.1656 11.3094C19.167 11.9167 18.8379 12.4766 18.3068 12.771L17.011 13.489C16.8788 13.5623 16.769 13.6702 16.6934 13.8011L16.6393 13.8947L15.9177 13.4779L16.6393 13.8947C16.5637 14.0255 16.5251 14.1745 16.5277 14.3256L16.5526 15.8096C16.5628 16.4137 16.2453 16.9759 15.7228 17.2792L13.4495 18.5986C12.9245 18.9033 12.2754 18.8985 11.755 18.586L10.4833 17.8226C10.3538 17.7448 10.2055 17.7037 10.0544 17.7037H9.94463C9.79385 17.7037 9.64589 17.7446 9.51653 17.8221L8.25063 18.58C7.73204 18.8906 7.08599 18.896 6.56228 18.5942L4.28175 17.28C3.7567 16.9775 3.43724 16.4137 3.44747 15.8078L3.47241 14.3302C3.47494 14.1802 3.43695 14.0324 3.36243 13.9022L3.3045 13.801L4.02773 13.387L3.3045 13.801C3.22907 13.6692 3.11907 13.5605 2.98638 13.4867L1.69686 12.7693L2.10131 12.0423L1.69686 12.7693C1.16941 12.4759 0.841814 11.9202 0.840443 11.3167L0.834477 8.69014C0.833098 8.08287 1.16212 7.52292 1.69328 7.22856L2.98902 6.51051L3.39295 7.2394L2.98902 6.51051C3.12126 6.43723 3.23106 6.32935 3.30669 6.19844L4.02828 6.61527L3.30669 6.19844L3.36076 6.10483C3.43634 5.97399 3.47492 5.82507 3.47238 5.67399L3.44741 4.1899C3.43725 3.58587 3.75473 3.02363 4.27722 2.72038L6.55054 1.40097ZM7.38716 2.84245L5.11384 4.16186L5.13881 5.64595C5.14644 6.09919 5.03069 6.54597 4.80395 6.93849L4.08235 6.52166L4.80395 6.93849L4.74987 7.0321C4.52301 7.42483 4.19358 7.74845 3.79688 7.96829L2.50114 8.68635L2.50711 11.3129L3.79662 12.0302C4.19468 12.2517 4.52468 12.5777 4.75096 12.973L4.8089 13.0742C5.03245 13.4648 5.14644 13.9084 5.13884 14.3584L5.1139 15.836L7.39442 17.1501L8.66032 16.3921C9.04842 16.1597 9.49229 16.037 9.94463 16.037H10.0544C10.5077 16.037 10.9525 16.1603 11.3412 16.3936L12.6129 17.1571L14.8862 15.8377L14.8612 14.3536C14.8536 13.9004 14.9694 13.4536 15.1961 13.0611L15.2502 12.9675L15.9718 13.3843L15.2502 12.9674C15.477 12.5747 15.8065 12.2511 16.2032 12.0312L17.4989 11.3132L17.4929 8.68667L16.2003 7.96758C15.8052 7.74776 15.4771 7.4249 15.2509 7.03337L15.9725 6.61654L15.2509 7.03336L15.1961 6.93849C14.9694 6.54597 14.8536 6.09918 14.8612 5.64595L14.8862 4.1636L12.6056 2.84943L11.3397 3.60741C10.9516 3.83979 10.5078 3.96252 10.0554 3.96252H9.94567C9.49234 3.96252 9.04755 3.83926 8.65888 3.60592L7.38716 2.84245ZM9.99992 7.49984C8.61921 7.49984 7.49992 8.61913 7.49992 9.99984C7.49992 11.3805 8.61921 12.4998 9.99992 12.4998C11.3806 12.4998 12.4999 11.3805 12.4999 9.99984C12.4999 8.61913 11.3806 7.49984 9.99992 7.49984ZM5.83325 9.99984C5.83325 7.69865 7.69873 5.83317 9.99992 5.83317C12.3011 5.83317 14.1666 7.69865 14.1666 9.99984C14.1666 12.301 12.3011 14.1665 9.99992 14.1665C7.69873 14.1665 5.83325 12.301 5.83325 9.99984Z" fill="#BDBDBD"/>
</g>
</svg>
