<svg width="20" height="20" viewBox="0 0 20 20" fill="none" xmlns="http://www.w3.org/2000/svg">
<path fill-rule="evenodd" clip-rule="evenodd" d="M2.74366 10.0003C2.80346 10.0695 2.8694 10.1444 2.94124 10.2242C3.34306 10.6709 3.92404 11.2658 4.63941 11.8587C6.09379 13.0643 7.98909 14.167 10.0002 14.167C12.0112 14.167 13.9065 13.0643 15.3609 11.8587C16.0763 11.2658 16.6573 10.6709 17.0591 10.2242C17.1309 10.1444 17.1969 10.0695 17.2567 10.0003C17.1969 9.93119 17.1309 9.85626 17.0591 9.77641C16.6573 9.32974 16.0763 8.73487 15.3609 8.14191C13.9065 6.93639 12.0112 5.83366 10.0002 5.83366C7.98909 5.83366 6.09379 6.93639 4.63941 8.14191C3.92404 8.73487 3.34306 9.32974 2.94124 9.77641C2.8694 9.85626 2.80346 9.93119 2.74366 10.0003ZM18.3335 10.0003C19.0014 9.50195 19.0012 9.50174 19.0011 9.50151L18.9995 9.49949L18.9963 9.49521L18.9858 9.48131C18.977 9.4697 18.9645 9.45347 18.9486 9.43293C18.9166 9.39184 18.8706 9.33344 18.8111 9.26021C18.6923 9.11381 18.5194 8.9077 18.2982 8.66174C17.8566 8.17091 17.2172 7.51578 16.4245 6.85874C14.8628 5.56426 12.5915 4.16699 10.0002 4.16699C7.40886 4.16699 5.1375 5.56426 3.5758 6.85874C2.78313 7.51578 2.14373 8.17091 1.70217 8.66174C1.48091 8.9077 1.30806 9.11381 1.18919 9.26021C1.12973 9.33344 1.08369 9.39184 1.05177 9.43293C1.03581 9.45347 1.02337 9.4697 1.01454 9.48131L1.004 9.49521L1.00079 9.49949L0.999692 9.50095C0.99952 9.50118 0.998944 9.50195 1.66683 10.0003L0.998944 9.50195C0.778347 9.79758 0.778347 10.2031 0.998944 10.4987L1.66683 10.0003C0.998944 10.4987 0.998771 10.4985 0.998944 10.4987L1.00079 10.5012L1.004 10.5054L1.01454 10.5193C1.02337 10.5309 1.03581 10.5472 1.05177 10.5677C1.08369 10.6088 1.12973 10.6672 1.18919 10.7404C1.30806 10.8868 1.48091 11.093 1.70217 11.3389C2.14373 11.8297 2.78313 12.4849 3.5758 13.1419C5.1375 14.4364 7.40886 15.8337 10.0002 15.8337C12.5915 15.8337 14.8628 14.4364 16.4245 13.1419C17.2172 12.4849 17.8566 11.8297 18.2982 11.3389C18.5194 11.093 18.6923 10.8868 18.8111 10.7404C18.8706 10.6672 18.9166 10.6088 18.9486 10.5677C18.9645 10.5472 18.977 10.5309 18.9858 10.5193L18.9963 10.5054L18.9995 10.5012L19.0006 10.4997C19.0008 10.4995 19.0014 10.4987 18.3335 10.0003ZM18.3335 10.0003L19.0014 10.4987C19.222 10.2031 19.2216 9.79714 19.0011 9.50151L18.3335 10.0003ZM10.0002 9.16699C9.53992 9.16699 9.16683 9.54009 9.16683 10.0003C9.16683 10.4606 9.53992 10.8337 10.0002 10.8337C10.4604 10.8337 10.8335 10.4606 10.8335 10.0003C10.8335 9.54009 10.4604 9.16699 10.0002 9.16699ZM7.50016 10.0003C7.50016 8.61961 8.61945 7.50033 10.0002 7.50033C11.3809 7.50033 12.5002 8.61961 12.5002 10.0003C12.5002 11.381 11.3809 12.5003 10.0002 12.5003C8.61945 12.5003 7.50016 11.381 7.50016 10.0003Z" fill="#BDBDBD"/>
</svg>
