<svg width="16" height="16" viewBox="0 0 16 16" fill="none" xmlns="http://www.w3.org/2000/svg">
<path fill-rule="evenodd" clip-rule="evenodd" d="M4.86177 4.19526C5.12212 3.93491 5.54423 3.93491 5.80458 4.19526L7.99984 6.39052L10.1951 4.19526C10.4554 3.93491 10.8776 3.93491 11.1379 4.19526C11.3983 4.45561 11.3983 4.87772 11.1379 5.13807L8.47124 7.80474C8.21089 8.06509 7.78878 8.06509 7.52843 7.80474L4.86177 5.13807C4.60142 4.87772 4.60142 4.45561 4.86177 4.19526ZM4.86177 8.19526C5.12212 7.93491 5.54423 7.93491 5.80458 8.19526L7.99984 10.3905L10.1951 8.19526C10.4554 7.93491 10.8776 7.93491 11.1379 8.19526C11.3983 8.45561 11.3983 8.87772 11.1379 9.13807L8.47124 11.8047C8.21089 12.0651 7.78878 12.0651 7.52843 11.8047L4.86177 9.13807C4.60142 8.87772 4.60142 8.45561 4.86177 8.19526Z" fill="#0077FF"/>
</svg>
