<svg width="49" height="32" viewBox="0 0 49 32" fill="none" xmlns="http://www.w3.org/2000/svg">
<ellipse cx="24.9217" cy="16.3895" rx="24.0598" ry="15.4987" fill="#AFB3B2"/>
<path fill-rule="evenodd" clip-rule="evenodd" d="M24.9217 0.890869C33.6364 0.890869 41.295 3.90242 45.5157 8.39014L42.7461 8.5639C38.7514 5.18023 32.2465 2.97212 24.9217 2.97212C12.824 2.97212 2.95553 9.0006 2.95553 16.3915C2.95553 23.7823 12.824 29.8116 24.9217 29.8116C32.5516 29.8116 39.2919 27.4136 43.2315 23.79L45.9176 23.943C41.7906 28.6775 33.9198 31.8882 24.9217 31.8882C11.6711 31.8882 0.861816 24.9264 0.861816 16.3899C0.861816 7.85272 11.6711 0.890869 24.9217 0.890869ZM24.9217 4.79043C30.9271 4.79043 36.3325 6.31811 40.0259 8.73304L7.32103 10.7674C10.7659 7.20843 17.3699 4.79043 24.9217 4.79043ZM40.6237 23.6393C36.928 26.2903 31.2601 27.9917 24.9217 27.9917C17.1562 27.9917 10.3935 25.4353 7.03609 21.7103L40.6237 23.6393ZM38.7274 10.4053C40.6252 14.577 39.5714 19.5614 38.578 21.9425L41.285 22.0986C41.8061 21.126 42.228 20.0504 42.4758 18.9502L45.7689 19.0132C45.3733 20.4363 44.918 21.2982 44.3643 22.2746L44.5959 22.2923L47.0643 22.4445C48.2986 20.5824 48.9815 18.5358 48.9815 16.3899C48.9815 14.0765 48.1878 11.8791 46.7693 9.90706L38.7274 10.4053ZM42.3651 12.8125L45.309 12.7264C45.762 13.5368 46.1801 14.7392 46.2227 16.1216H42.8212C42.791 15.1805 42.6841 13.902 42.3651 12.8125ZM31.3538 10.8635C32.3201 14.4002 32.238 18.0114 31.3429 21.5219L37.1099 21.8648C37.3716 21.1721 37.6055 20.4771 37.837 19.5383L35.1455 19.3899C35.7386 16.8013 35.4243 12.8064 34.5121 10.6728L31.3538 10.8635ZM23.8748 11.3286C24.9604 14.1203 24.6894 18.1198 23.898 21.0898L29.6852 21.4258C29.95 20.6931 30.1095 19.7567 30.2148 19.1885L27.6402 19.0839C28.2062 16.433 27.9561 13.0216 27.0223 11.1326L23.8748 11.3286ZM15.5898 11.8438C14.059 14.6785 13.9622 17.6208 15.4837 20.6016L21.5658 20.9561C21.7517 20.2926 21.905 19.6706 22.0227 19.0732C22.025 19.0593 22.0265 19.0463 22.0273 19.0309L17.596 18.8433C17.3614 18.0944 17.3614 17.8476 17.3142 17.4302L22.2457 17.454C22.3843 17.055 22.4307 15.6811 22.2457 15.2513L17.2437 15.2659C17.2607 14.9322 17.4953 13.8804 17.5488 13.7351L22.0699 13.4783C21.9468 12.8517 21.7695 12.1659 21.5612 11.4724L15.5898 11.8438ZM5.95129 12.4412C4.47315 15.0122 4.38179 17.5463 5.8096 20.0404L8.10385 20.1742C8.00629 19.9789 7.42711 18.7987 7.28541 17.5909L9.64161 17.5862C9.64161 17.5862 9.92191 19.1977 10.4167 20.3018L13.0842 20.4625C11.6927 17.7262 11.7516 14.7354 13.0067 12.0045L10.3633 12.1682C10.0899 12.9601 9.85609 13.6636 9.64471 14.9606L7.30322 14.9553C7.48673 13.7482 7.82433 13.0893 8.1325 12.3051L5.95129 12.4412Z" fill="#6B6F6E"/>
</svg>
