<svg width="63" height="18" viewBox="0 0 63 18" fill="none" xmlns="http://www.w3.org/2000/svg">
<path d="M0.419922 0.654053H5.99324L9.14338 10.9791H9.19028L12.3912 0.654053H17.816V17.4691H14.2321V5.58166H14.1813L10.7419 17.4691H7.44715L4.0547 5.58166H4.00389V17.4691H0.419922V0.654053Z" fill="#6B6F6E"/>
<path d="M0.419922 0.654053H5.99324L9.14338 10.9791H9.19028L12.3912 0.654053H17.816V17.4691H14.2321V5.58166H14.1813L10.7419 17.4691H7.44715L4.0547 5.58166H4.00389V17.4691H0.419922V0.654053Z" fill="#6B6F6E"/>
<path d="M52.4516 0.653809H48.8638V3.96944H52.4516V0.653809Z" fill="#6B6F6E"/>
<path d="M52.4516 5.15381H48.8638V17.469H52.4516V5.15381Z" fill="#6B6F6E"/>
<path d="M58.0249 0.653809H54.437V17.4688H58.0249V0.653809Z" fill="#6B6F6E"/>
<path d="M25.8044 14.3022C27.4928 14.3022 28.8607 12.9653 28.8607 11.3151C28.8607 9.6649 27.4928 8.32796 25.8044 8.32796C24.116 8.32796 22.748 9.6649 22.748 11.3151C22.748 12.9653 24.116 14.3022 25.8044 14.3022ZM19.1406 11.3113C19.1406 7.70914 22.1266 4.79077 25.8083 4.79077C29.4939 4.79077 32.4798 7.70914 32.4798 11.3113C32.4798 14.9096 29.4939 17.8317 25.8083 17.8317C22.1305 17.8317 19.1406 14.9096 19.1406 11.3113Z" fill="#AFB3B2"/>
<path d="M40.6679 14.3021C42.3563 14.3021 43.7242 12.9652 43.7242 11.315C43.7242 9.66485 42.3563 8.3279 40.6679 8.3279C38.9795 8.3279 37.6116 9.66485 37.6116 11.315C37.6116 12.9652 38.9795 14.3021 40.6679 14.3021ZM33.9846 17.4688V0.653809H37.5686V6.10092C38.5613 5.27201 39.7025 4.87093 41.0079 4.87093C44.6427 4.87093 47.3551 7.87715 47.3551 11.3341C47.3551 14.7911 44.6153 17.7515 41.0079 17.7515C39.6517 17.7515 38.487 17.3733 37.5686 16.3763V17.465H33.9846V17.4688Z" fill="#6B6F6E"/>
<path d="M60.2998 2.33836H59.9402V0.951758H59.4204V0.653809H60.8196V0.951758H60.2998V2.33836Z" fill="#6B6F6E"/>
<path d="M62.6877 2.33836H62.3515V0.932658H62.3437L62.0232 2.33836H61.6715L61.3588 0.932658H61.3549V2.33836H61.0188V0.653809H61.5425L61.8552 1.9793H61.8591L62.1639 0.653809H62.6877V2.33836Z" fill="#6B6F6E"/>
</svg>
