<svg width="91" height="24" viewBox="0 0 91 24" fill="none" xmlns="http://www.w3.org/2000/svg">
<path d="M21.6752 13.1881C21.6752 13.1404 21.6272 13.0926 21.6272 13.0449C19.9486 14.9537 15.7761 16.1945 12.0352 15.9559C9.82906 15.765 5.75246 14.6197 3.69019 13.379C5.84838 15.4787 8.43822 17.0535 11.3158 17.8647C14.7689 18.8668 18.4139 18.8191 20.4762 17.7215C21.9629 16.7194 22.2986 14.906 21.6752 13.1881Z" fill="#AFB3B2"/>
<path d="M16.9755 1.06691C23.7378 5.02773 19.7092 17.5305 14.3377 21.5391C9.34983 25.2613 4.02628 23.5433 2.87524 20.1075C3.8824 21.5868 5.89672 22.1594 7.67124 21.5391C12.5631 19.5825 15.153 10.6588 15.4407 7.55692C15.6805 4.93229 15.3448 3.1189 14.3856 2.02133C13.3305 0.923753 11.6999 0.351105 9.30187 1.11464C10.9805 -0.269264 14.4815 -0.412425 16.9755 1.06691Z" fill="#6B6F6E"/>
<path d="M20.7636 17.5782C20.7636 17.5782 20.8116 17.5305 20.8596 17.5305C21.0034 17.4351 21.1473 17.3396 21.2432 17.2442C21.2912 17.1965 21.3392 17.1488 21.4351 17.0533C24.0729 14.381 24.6004 7.03199 18.1258 3.54838C15.8238 2.30764 10.4523 0.541982 5.1287 3.26206C3.35418 4.16875 1.53171 5.98213 0.57251 8.51133C1.29191 7.31831 2.53887 6.50706 5.03278 6.17302C7.47874 5.88669 10.8839 6.26846 14.2411 7.41375C16.3993 8.17728 18.1258 9.17941 19.4687 10.277C20.5718 11.2314 21.2912 12.1381 21.6749 13.0925C21.6749 13.1402 21.7228 13.1879 21.7228 13.2357C22.3463 15.0013 21.9626 16.8147 20.4759 17.8168C20.5238 17.7691 20.6198 17.7214 20.6677 17.7214C20.6677 17.7214 20.6677 17.7214 20.7157 17.7214C20.7157 17.626 20.7157 17.5782 20.7636 17.5782Z" fill="#6B6F6E"/>
<path d="M1.38849 12.7106C1.53237 12.9015 1.77217 13.2356 1.96401 13.4265C3.25893 10.3723 10.357 8.41579 12.4672 8.46351C7.76716 6.93645 3.16301 7.65226 1.29257 9.27476C0.621133 9.99057 0.429293 11.1359 1.38849 12.7106Z" fill="#AFB3B2"/>
<path d="M15.2489 19.5826C11.4601 19.3917 5.94466 17.9123 2.05991 13.522C2.05991 13.4743 2.01195 13.4743 1.96399 13.4266C1.77215 13.2357 1.48439 12.9017 1.38847 12.7108C0.429269 11.136 0.621109 10.0384 1.29255 9.2749C1.19663 9.37034 1.00479 9.51351 0.860908 9.75211C-0.14625 11.0406 -0.24217 13.1403 0.429269 15.3354C1.91603 20.1075 8.43858 23.0184 13.7142 22.2072C17.0714 21.6823 19.2296 19.8212 20.0928 19.0576C18.1744 19.5826 16.7356 19.678 15.2489 19.5826Z" fill="#AFB3B2"/>
<path fill-rule="evenodd" clip-rule="evenodd" d="M32.8497 15.765C32.8497 17.3875 34.2406 18.4851 36.5427 18.676V8.89326H41.7223V6.65039H28.1497V8.89326H32.8497V15.765ZM46.8062 9.17958C42.6817 9.17958 40.3316 10.9452 40.3316 13.9994C40.3316 17.0058 42.6817 18.7714 46.8062 18.7714C50.9308 18.7714 53.2808 17.0058 53.2808 13.9994C53.2328 10.9452 50.8828 9.17958 46.8062 9.17958ZM46.8062 16.5763C44.5521 16.5763 43.4011 15.7173 43.4011 13.9994C43.4011 12.2814 44.5521 11.4224 46.8062 11.4224C49.0603 11.4224 50.2114 12.2814 50.2114 13.9994C50.1634 15.7173 49.0124 16.5763 46.8062 16.5763ZM54.096 9.4182V11.4702H57.9808V17.817C57.9808 18.4374 58.892 18.6283 59.7073 18.6283C60.4747 18.6283 61.4339 18.4374 61.4339 17.817V11.4702H65.3186V9.4182H54.096ZM84.0229 16.0036C84.3587 16.2899 85.0301 16.4331 85.9893 16.4331V16.3854H90.6894V18.1033V18.5328H87.8118L87.4277 18.5331C85.2468 18.5356 83.0398 18.5381 81.8168 17.817C80.7617 17.1966 80.2341 16.0513 80.2341 14.3811V10.0385C80.2341 9.46588 81.0974 9.27499 81.8647 9.27499C82.6321 9.27499 83.4954 9.46588 83.4954 10.0862V14.572C83.4954 15.0492 83.5433 15.6218 84.0229 16.0036ZM78.7955 18.1988L78.8914 18.5805H75.726L75.6781 18.2942C75.5821 17.7693 75.3903 17.1966 75.1025 16.5763H68.4361C68.1963 17.1966 68.0045 17.7693 67.8606 18.2942L67.8126 18.5805H64.7912L64.8871 18.1988C65.6544 14.4288 69.9708 10.134 70.8341 9.5136C71.1219 9.32272 71.4576 9.27499 71.8413 9.27499C72.2729 9.27499 72.5607 9.32272 72.8484 9.5136C73.7597 10.134 78.0281 14.4288 78.7955 18.1988ZM71.8413 11.9474C70.978 12.8063 70.2106 13.7607 69.5872 14.7151H74.0954C73.4719 13.713 72.7045 12.8063 71.8413 11.9474Z" fill="#AFB3B2"/>
</svg>
