<svg width="45" height="47" viewBox="0 0 45 47" fill="none" xmlns="http://www.w3.org/2000/svg">
<path d="M26.617 23.3346C26.617 26.8047 23.7989 29.6228 20.3287 29.6228C16.8586 29.6228 14.0405 26.8047 14.0405 23.3346C14.0405 19.8645 16.8586 17.0464 20.3287 17.0464C23.7989 17.0464 26.617 19.8572 26.617 23.3346Z" fill="#00A99D"/>
<path d="M28.412 14.67L36.3737 0.876465H24.0798C20.6531 0.970643 19.7548 1.64438 18.4508 3.89742C18.4508 3.89742 10.5471 17.5895 10.5471 17.5967C9.56906 19.2775 8.9895 21.2407 8.9895 23.3271C8.9895 27.4492 11.1918 31.0642 14.4881 33.042C16.1905 34.0635 18.19 34.6575 20.3199 34.6575C26.5791 34.6575 31.6503 29.5864 31.6503 23.3271C31.6503 21.1828 31.0562 19.176 30.0203 17.4663L28.412 14.67ZM24.145 3.77426H31.3532L26.7385 11.7722L25.1664 9.04825L22.2397 3.97711C22.6599 3.83222 23.2322 3.77426 24.145 3.77426ZM20.3271 31.7814C18.2552 31.7814 16.3571 31.0353 14.8865 29.7965C13.0464 28.2461 11.8801 25.9279 11.8801 23.3344C11.8801 21.7696 12.3002 20.3134 13.0392 19.0529C13.0392 19.0529 20.2981 6.4837 20.3199 6.43299L23.1525 11.3303V11.3375L27.6006 19.0456V19.0529C28.3395 20.3062 28.7597 21.7696 28.7597 23.3344C28.767 27.9998 24.9853 31.7814 20.3271 31.7814Z" fill="#00A99D"/>
<path d="M20.9022 42.3078V42.2933C20.9022 41.04 19.9821 40.3083 18.5622 40.3083H16.3599C16.1498 40.3083 15.9614 40.4822 15.9614 40.6778V45.9446H17.519V44.5246C17.519 44.4377 17.6059 44.3363 17.6929 44.3363H18.2434L19.3301 45.9446H21.134L19.8372 44.0538C20.4965 43.7278 20.9022 43.1409 20.9022 42.3078ZM19.3446 42.3803C19.3446 42.8222 19.0041 43.112 18.4535 43.112H17.519V41.8659C17.519 41.7283 17.6277 41.6196 17.7581 41.6196H18.439C19.0041 41.6196 19.3446 41.8732 19.3446 42.3585V42.3803V42.3803Z" fill="#414042"/>
<path d="M24.3418 40.1924C22.6031 40.1924 21.2991 41.5036 21.2991 43.1264V43.1336C21.2991 44.7564 22.5886 46.0532 24.3273 46.0532C26.066 46.0532 27.37 44.7347 27.37 43.1264V43.1047C27.37 41.4964 26.0804 40.1924 24.3418 40.1924ZM25.7762 43.1409C25.7762 43.9523 25.2111 44.6477 24.3418 44.6477C23.4942 44.6477 22.9001 43.9378 22.9001 43.1336V43.1119C22.9001 42.3005 23.4724 41.6051 24.3273 41.6051C25.1894 41.6051 25.7762 42.315 25.7762 43.1264V43.1409Z" fill="#414042"/>
<path d="M31.7946 40.6706V43.2931L29.4764 40.3083H28.4187C28.1941 40.3083 28.0203 40.4895 28.0203 40.714V45.9446H29.5633V42.8584L31.9685 45.9446H33.3377V40.3083H32.1931C31.983 40.3083 31.7946 40.4677 31.7946 40.6706Z" fill="#414042"/>
<path d="M10.6567 40.6923V41.6776H12.3447V45.9373H13.9095V41.8514C13.9095 41.7572 13.9892 41.6776 14.1051 41.6776H15.5975V40.3083H11.0552C10.8379 40.3083 10.6567 40.4967 10.6567 40.6923Z" fill="#414042"/>
<path d="M3.086 40.3083H1.07203C0.86194 40.3083 0.673584 40.475 0.673584 40.6778V45.9446H2.23115V44.5246C2.23115 44.4377 2.32532 44.3363 2.41226 44.3363H3.00631C4.40449 44.3363 5.43321 43.6408 5.43321 42.3151V42.3006C5.42596 41.04 4.50591 40.3083 3.086 40.3083ZM3.8684 42.3803C3.8684 42.8222 3.52791 43.112 2.97733 43.112H2.23115V41.6268H2.96284C3.52791 41.6268 3.8684 41.8804 3.8684 42.3658V42.3803Z" fill="#414042"/>
<path d="M5.76733 40.6995V45.9445H10.2951V44.6115H7.31041V43.9305C7.31041 43.8291 7.40459 43.7204 7.50601 43.7204H9.9474V42.4889H7.31041V41.8441C7.31041 41.7427 7.39734 41.634 7.49152 41.634H10.2951V40.301H6.16578C5.94845 40.3083 5.76733 40.4821 5.76733 40.6995Z" fill="#414042"/>
<path d="M42.6055 42.4304C41.8231 42.2566 41.6275 42.1407 41.6275 41.8871V41.8726C41.6275 41.6698 41.8087 41.5104 42.1926 41.5104C42.5403 41.5104 42.9098 41.6046 43.2793 41.7784C43.2793 41.7784 43.359 41.8219 43.3952 41.8364C43.5039 41.8871 43.627 41.9233 43.7791 41.8943C43.8878 41.8726 43.9675 41.7712 44.0617 41.6553L44.5471 40.9598C43.9385 40.4672 43.1923 40.2136 42.2288 40.2136C40.8814 40.2136 40.0482 40.9743 40.0482 42.0175V42.032C40.0482 43.1911 40.9755 43.5244 42.1709 43.8069C42.9388 43.9808 43.1199 44.1112 43.1199 44.343V44.3575C43.1199 44.6038 42.8953 44.7414 42.4751 44.7414C41.9825 44.7414 41.5044 44.611 41.0625 44.3502C40.9393 44.285 40.7799 44.1981 40.5771 44.2488C40.4974 44.2705 40.4322 44.3212 40.3598 44.4009L39.7729 45.1037C40.4684 45.7194 41.4174 46.0309 42.4172 46.0309C43.7864 46.0309 44.692 45.35 44.692 44.1981V44.1908C44.7064 43.1332 43.8951 42.713 42.6055 42.4304Z" fill="#414042"/>
<path d="M35.316 45.9446L35.5986 45.2346C35.6421 45.1187 35.7362 45.0028 35.8594 44.9811H37.8734L38.2646 45.9446H39.938L37.5546 40.3083H36.2723C36.084 40.3301 36.0043 40.4315 35.9391 40.5691L33.6643 45.9446H35.316V45.9446ZM36.7939 42.1557L37.4242 43.7567H36.1564L36.7939 42.1557Z" fill="#414042"/>
</svg>
