<svg width="89" height="16" viewBox="0 0 89 16" fill="none" xmlns="http://www.w3.org/2000/svg">
<path d="M19.1055 15.7963H16.5935L14.8422 12.3334H4.24568L2.51203 15.7963H0L7.80143 0.259277H11.251L19.1055 15.7963ZM13.8692 10.2963L9.83582 2.11113H9.30511L5.23634 10.2963H13.8692Z" fill="#AFB2B2"/>
<path d="M37.3619 11.2778C37.3619 14.2963 35.7875 15.8148 32.6386 15.8148H20.733V0.259277H32.1256C33.5762 0.259277 34.6907 0.611129 35.5044 1.31483C36.389 2.07409 36.8312 3.1852 36.8312 4.66669C36.8312 6.22224 36.2651 7.22224 35.133 7.66668C35.8583 7.90743 36.4243 8.37039 36.7958 9.05557C37.185 9.6852 37.3619 10.4259 37.3619 11.2778ZM34.6199 4.66669C34.6199 3.12965 33.7885 2.37039 32.1256 2.37039H22.962V6.81483H32.1256C32.9394 6.81483 33.5408 6.66669 33.93 6.37039C34.39 6.05557 34.6199 5.4815 34.6199 4.66669ZM35.1506 11.2778C35.1506 10.5 34.9207 9.88891 34.4607 9.44446C34.0008 9.00002 33.3816 8.7778 32.6386 8.7778H22.962V13.6852H32.6386C34.3015 13.6852 35.1506 12.8889 35.1506 11.2778Z" fill="#AFB2B2"/>
<path d="M55.9016 11.537C55.9016 13.4074 55.2293 14.6667 53.8849 15.2593C52.8234 15.7407 50.5945 16 47.1979 16C43.5714 16 41.2363 15.5741 40.2102 14.7407C39.3965 14.0741 38.9719 12.6852 38.9719 10.5926H41.1832C41.1832 12.037 41.5016 12.9444 42.1385 13.3333C42.74 13.7037 44.4205 13.8889 47.1979 13.8889C50.0107 13.8889 51.7266 13.7593 52.3812 13.5185C53.248 13.1852 53.6726 12.5185 53.6726 11.5185C53.6726 10.4815 53.3718 9.83333 52.7881 9.53704C52.2927 9.27778 50.5945 9.16667 47.7109 9.16667C44.2613 9.16667 41.9616 8.74074 40.8294 7.87037C39.9272 7.18519 39.4849 6 39.4849 4.33333C39.4849 2.51852 40.0157 1.33333 41.0771 0.777778C42.0854 0.259259 44.2967 0 47.7286 0C51.0898 0 53.2834 0.407407 54.274 1.24074C55.0878 1.90741 55.4947 3.22222 55.4947 5.14815H53.3365C53.3365 3.85185 53.018 3.01852 52.3635 2.64815C51.762 2.2963 50.223 2.11111 47.7463 2.11111C45.6766 2.11111 44.3852 2.14815 43.8898 2.22222C42.4392 2.42593 41.7139 3.14815 41.7139 4.35185C41.7139 5.38889 42.1208 6.11111 42.9169 6.51852C43.6422 6.90741 45.5173 7.09259 48.5424 7.11111C51.5497 7.12963 53.4603 7.33333 54.2564 7.72222C55.3355 8.27778 55.9016 9.55555 55.9016 11.537Z" fill="#AFB2B2"/>
<path d="M72.7074 15.7963H58.4844V0.259277H72.7074V2.37039H60.7134V6.87039H72.2651V8.9815H60.7134V13.7037H72.7074V15.7963Z" fill="#AFB2B2"/>
<path d="M89 15.7963H75.3961V0.259277H77.6074V13.7037H89V15.7963Z" fill="#AFB2B2"/>
</svg>
