<svg width="57" height="19" viewBox="0 0 57 19" fill="none" xmlns="http://www.w3.org/2000/svg">
<path fill-rule="evenodd" clip-rule="evenodd" d="M8.43429 15.1117C9.72763 15.1117 10.7896 14.4427 11.5251 13.4213H16.1753C15.2073 16.3254 12.0337 18.6648 8.43541 18.6648C3.96183 18.6648 0.335571 15.0939 0.335571 10.8295C0.335571 6.56514 3.65107 3.00647 8.43541 3.00647C12.909 3.00647 16.5364 6.56625 16.5364 10.8295C16.5364 11.293 16.4917 11.7475 16.4101 12.3877H5.25517C5.5704 13.9348 6.81008 15.1117 8.43429 15.1117ZM23.0109 1.43052H18.2042V18.2836H23.0109V1.43052ZM30.2891 7.97771H35.5541V11.7275H30.288V18.2336H25.5562V6.74629C25.5562 6.74629 25.8301 1.47942 30.8346 1.37939H35.5619V5.17145H31.7982C31.7982 5.17145 30.2131 5.18257 30.2891 7.19418V7.97771ZM5.40717 9.14356C5.40717 7.52538 6.82905 6.48623 8.43538 6.48623C10.5503 6.48623 11.4748 7.55872 11.4759 9.14356H5.40717Z" fill="#6B6F6E"/>
<path d="M53.1835 4.26562H49.8959V10.4861L48.2896 11.0351V15.4229H44.9607L46.2842 18.9126L56.8668 15.2728V4.26562H53.1835Z" fill="#AFB3B2"/>
<path d="M51.8007 0.76123L41.2181 4.45215V15.4227H48.2896V9.23891L49.8959 8.77435V4.26544H53.1834L51.8007 0.76123Z" fill="#6B6F6E"/>
</svg>
