<svg width="95" height="16" viewBox="0 0 95 16" fill="none" xmlns="http://www.w3.org/2000/svg">
<path d="M65.6298 0.473877C65.6074 0.473877 65.6298 4.24504 65.6298 4.26749H70.052V15.581H74.4966V4.26749H78.9411C78.9636 4.26749 78.9411 0.473877 78.9411 0.473877H65.6298Z" fill="#6B6F6E"/>
<path d="M29.8935 15.581C32.026 10.6425 34.2259 5.50209 36.1788 0.473877H31.42C30.1405 3.7063 27.4917 10.3956 27.4917 10.3956C26.1673 7.23054 24.9551 3.66141 23.5409 0.473877H18.9392C20.8697 5.54699 22.9348 10.6425 25.1122 15.581H29.8935Z" fill="#6B6F6E"/>
<path d="M61.9708 9.87934L61.8586 9.69976C63.8339 8.59983 64.9339 6.04083 64.5747 4.31238C63.7666 0.473875 60.2648 0.473877 59.2322 0.473877C58.065 0.473877 52.0266 0.473877 52.0266 0.473877V15.581H56.4039V9.2957L61.6341 15.581H66.999L61.9708 9.87934ZM58.3792 7.29789C57.7731 7.29789 56.3814 7.29789 56.3814 7.29789V3.81854C56.3814 3.81854 57.8405 3.81854 58.3792 3.81854C59.12 3.81854 60.2873 4.28993 60.2873 5.56944C60.2873 6.84894 58.9853 7.29789 58.3792 7.29789Z" fill="#6B6F6E"/>
<path d="M44.5517 0.473877H39.9051L33.53 15.581H37.9971L38.9623 13.5607H45.4047L46.5046 15.581H51.1737C51.1737 15.581 46.774 5.38986 44.5517 0.473877ZM40.4663 10.0589L42.1723 5.25517L44.0803 10.0589H40.4663Z" fill="#6B6F6E"/>
<path d="M87.6057 0.473877H82.959L76.584 15.581H81.051L82.0163 13.5607H88.4587L89.5586 15.581H94.2277C94.2277 15.581 89.828 5.38986 87.6057 0.473877ZM83.5202 10.0589L85.2262 5.25517L87.1567 10.0589H83.5202Z" fill="#6B6F6E"/>
<path d="M0.262939 0.945312H14.3824V15.1321H0.262939V0.945312Z" fill="#6B6F6E"/>
<path d="M7.31141 13.4934L0.240479 0.945312H14.3823L7.31141 13.4934Z" fill="#AFB3B2"/>
<path d="M7.31145 13.4935L0.307861 1.03516L7.31145 13.4935ZM14.3375 1.03516L7.31145 13.4935Z" fill="#6B6F6E"/>
</svg>
