<svg width="79" height="19" viewBox="0 0 79 19" fill="none" xmlns="http://www.w3.org/2000/svg">
<path fill-rule="evenodd" clip-rule="evenodd" d="M9.56167 12.3316C9.56167 11.3419 8.83128 10.657 7.29831 10.657H4.2268V14.0321H7.37329C8.65633 14.0321 9.56167 13.5752 9.56167 12.3316ZM9.00902 5.6332C9.00902 4.6687 8.35362 4.00885 7.37329 4.00885H4.2268V7.20617H7.29831C8.40361 7.20617 9.00902 6.39441 9.00902 5.6332ZM14.1412 12.8135C14.1412 15.7067 11.4751 17.6099 8.7813 17.6099H0V0.430516H8.05091C11.1474 0.430516 13.3858 1.97738 13.3858 5.15053C13.3858 7.86601 11.0224 8.67777 11.0224 8.67777C11.0224 8.70332 14.1412 9.41399 14.1412 12.8135" fill="#AFB3B2"/>
<path fill-rule="evenodd" clip-rule="evenodd" d="M27.2854 9.00796C27.2854 6.31802 26.0524 4.13575 23.6141 4.13575C21.173 4.13575 19.9649 6.31802 19.9649 9.00796C19.9649 11.7229 21.173 13.9049 23.6141 13.9049C26.0524 13.9049 27.2854 11.7229 27.2854 9.00796ZM31.5122 9.00796C31.5122 14.0573 28.6185 18.0159 23.6141 18.0159C18.6319 18.0159 15.7131 14.0573 15.7131 9.00796C15.7131 3.98357 18.6319 4.59488e-05 23.6113 4.59488e-05C28.6185 4.59488e-05 31.5122 3.98357 31.5122 9.00796Z" fill="#AFB3B2"/>
<path fill-rule="evenodd" clip-rule="evenodd" d="M46.2671 12.4077C46.2671 16.1888 42.8457 18.0159 39.627 18.0159C35.9029 18.0159 33.9894 16.5948 32.4814 14.7933L35.2225 12.1031C36.3805 13.5752 37.8913 14.3112 39.577 14.3112C40.96 14.3112 41.8904 13.6261 41.8904 12.6107C41.8904 11.5199 41.0683 11.18 38.8189 10.7076L38.2162 10.5809C35.5085 10.0122 33.284 8.47502 33.284 5.40463C33.284 2.03013 36.0278 4.59488e-05 39.652 4.59488e-05C42.7207 4.59488e-05 44.7092 1.31918 45.9172 2.68831L43.2484 5.32853C42.418 4.44013 41.16 3.72974 39.727 3.72974C38.7467 3.72974 37.6386 4.18657 37.6386 5.32853C37.6386 6.36885 38.7911 6.74626 40.2546 7.05397L40.8601 7.18116C43.3095 7.69521 46.2671 8.44975 46.2671 12.4077" fill="#AFB3B2"/>
<path fill-rule="evenodd" clip-rule="evenodd" d="M62.6078 14.2856C60.8471 16.8231 59.2114 18.0159 55.815 18.0159C50.9855 18.0159 47.864 14.0065 47.864 8.90631C47.864 4.05966 50.6828 0.0250391 55.8649 0.0250391C58.7087 0.0250391 60.7472 1.14145 62.4829 3.75528L59.0114 6.06447C58.306 4.84614 57.4007 4.13575 55.8899 4.13575C53.9793 4.13575 52.1408 5.84508 52.1408 8.90631C52.1408 12.3366 54.1292 13.9049 56.0177 13.9049C57.6506 13.9049 58.406 13.0928 59.1114 11.9256L62.6078 14.2856" fill="#AFB3B2"/>
<path fill-rule="evenodd" clip-rule="evenodd" d="M78.7233 17.6099H74.1938V10.8348H68.9839V17.6099H64.4822V0.430516H68.9839V6.74933H74.1938V0.430516H78.7233V17.6099" fill="#AFB3B2"/>
</svg>
