<svg width="87" height="21" viewBox="0 0 87 21" fill="none" xmlns="http://www.w3.org/2000/svg">
<path fill-rule="evenodd" clip-rule="evenodd" d="M10.0308 2.59552C8.90563 2.62654 7.81203 2.84538 6.78102 3.31406L8.12449 5.68908C8.71838 5.43923 9.4059 5.283 10.0308 5.283C10.2497 5.283 10.4369 5.31402 10.6557 5.34505C13.218 5.53286 15.2806 8.18931 15.0933 10.72C14.8745 13.5011 12.6557 15.2512 10.0308 15.3764C9.87459 15.3764 9.68678 15.3764 9.53055 15.3764C7.81203 15.0014 6.37494 14.2828 5.53119 12.6574L2.7185 7.78267C2.34344 8.90786 2.21879 9.97044 2.31242 11.1266C2.75008 14.8141 5.56221 17.6262 9.24967 18.0639C9.49953 18.0949 9.78096 18.0949 10.0308 18.0949C14.3122 18.0323 17.7492 14.6263 17.8118 10.3765C17.7492 6.15777 14.5305 2.90798 10.4369 2.59552C10.3123 2.59552 10.156 2.59552 10.0308 2.59552V2.59552ZM10.0308 20.3447C4.53121 20.3447 0 15.8451 0 10.3765C0 7.68904 1.06203 5.25142 2.81213 3.43927L7.59375 11.689C7.81203 12.0635 8.12449 12.4075 8.49955 12.6889C8.93721 12.9388 9.43693 13.1261 9.96822 13.1261C9.9998 13.1261 10.0308 13.1261 10.0308 13.1261C11.9682 13.1887 13.3116 11.0951 12.6557 9.37654C12.2806 8.28294 11.187 7.56439 10.0308 7.56439C9.87459 7.56439 9.71836 7.56439 9.56213 7.59542C8.71838 7.68904 7.87463 8.40759 7.49957 9.15771L3.71848 2.59552C5.43701 1.18945 7.6558 0.345703 10.0308 0.345703C15.562 0.345703 20.0616 4.84534 20.0616 10.3765C20.0616 15.8451 15.562 20.3447 10.0308 20.3447" fill="#AFB3B2"/>
<path fill-rule="evenodd" clip-rule="evenodd" d="M35.5617 11.5638L34.0305 8.9699C33.9679 9.22032 33.9368 9.47017 33.9368 9.75161V16.9077H36.6864V13.5327L35.5617 11.5638ZM51.8423 11.0325L53.311 13.5637V16.8761H53.2794V16.9077H50.1858V8.18931L51.8423 11.0325ZM51.8423 9.65798L53.311 12.1577V10.5328C53.311 9.34552 55.3109 9.2519 55.3109 10.5328V16.8761H57.1546V16.9077H58.748V10.5328C58.748 9.34552 60.7485 9.2519 60.7485 10.5328V16.9077H63.842V10.3765C63.842 6.8453 59.4045 6.18935 57.7796 8.40759C56.7796 7.0331 54.717 6.75167 53.2794 7.56439V7.12673H50.3736L51.8423 9.65798V9.65798ZM69.0918 12.72L65.7168 6.87687C65.7168 10.2203 65.7168 13.5637 65.7168 16.8761H68.4669V16.47C69.0918 16.7825 69.8103 16.9697 70.5915 16.9697C73.2479 16.9697 75.4352 14.7825 75.4352 12.0951C75.4352 9.43915 73.2479 7.25194 70.5915 7.25194C69.8103 7.25194 69.0918 7.43919 68.4669 7.75165V3.7207H65.7168C65.7168 4.84533 65.7168 4.34507 65.7168 5.47025L69.1544 11.3765C69.4043 10.8762 69.9666 10.5017 70.5915 10.5017C71.4668 10.5017 72.1854 11.2203 72.1854 12.0951C72.1854 12.9698 71.4668 13.6889 70.5915 13.6889C69.904 13.6889 69.3416 13.3139 69.0918 12.72V12.72ZM80.091 12.8136L77.8418 8.93888C77.0916 9.78263 76.654 10.8762 76.654 12.0951C76.654 14.7825 78.8417 16.9697 81.5287 16.9697C84.1851 16.9697 86.3723 14.7825 86.3723 12.0951C86.3723 9.43915 84.1851 7.25194 81.5287 7.25194C80.3099 7.25194 79.2162 7.68904 78.3415 8.43917L80.091 11.4075C80.3414 10.8762 80.9037 10.5017 81.5287 10.5017C82.404 10.5017 83.1225 11.2203 83.1225 12.0951C83.1225 12.9698 82.404 13.6889 81.5287 13.6889C80.9037 13.6889 80.3414 13.3449 80.091 12.8136ZM44.6546 14.3764C45.1549 14.1886 45.4984 13.7199 45.5925 13.1887H48.7797C48.3111 15.1576 46.6862 16.6573 44.6546 16.9387C44.4674 16.9387 44.2485 16.9697 44.0297 16.9697C41.3738 16.9697 39.1866 14.7825 39.1866 12.0951C39.1866 11.0325 39.5301 10.0951 40.0929 9.28292L42.5926 13.5637C42.8425 14.126 43.3738 14.5011 44.0297 14.5011C44.2485 14.5011 44.4674 14.4701 44.6546 14.3764ZM44.6546 11.2513H45.6236C45.561 10.658 45.1859 10.1887 44.6546 9.97044C44.4674 9.87626 44.2485 9.84523 44.0297 9.84523C43.1865 9.84523 42.53 10.4391 42.4674 11.2513H44.6546ZM44.6546 7.28296C44.4674 7.28296 44.2485 7.25194 44.0297 7.25194C42.7178 7.25194 41.4674 7.81425 40.5927 8.72005L42.9051 12.72V12.5011H48.8734C48.8734 12.3449 48.9049 12.2203 48.9049 12.0951C48.9049 9.65798 47.0296 7.59542 44.6546 7.28296V7.28296ZM35.5617 10.1887L34.4055 8.22033C34.718 7.84527 35.1241 7.59542 35.5617 7.47021C35.8116 7.37658 36.0925 7.34556 36.3429 7.34556H38.5617V9.90784H37.9362C37.2176 9.90784 36.6864 10.4075 36.6864 11.1577V12.1266L35.5617 10.1887V10.1887ZM25.9996 12.72L22.593 6.87687C22.593 10.2203 22.593 13.5637 22.593 16.8761H25.3431V16.47C25.9996 16.7825 26.7181 16.9697 27.4677 16.9697C30.1242 16.9697 32.343 14.7825 32.343 12.0951C32.343 9.43915 30.1242 7.25194 27.4677 7.25194C26.7181 7.25194 25.9996 7.43919 25.3431 7.75165V3.7207H22.593C22.593 4.84533 22.593 4.34507 22.593 5.47025L26.0306 11.3765C26.2805 10.8762 26.8428 10.5017 27.4677 10.5017C28.343 10.5017 29.0616 11.2203 29.0616 12.0951C29.0616 12.9698 28.343 13.6889 27.4677 13.6889C26.8118 13.6889 26.2495 13.3139 25.9996 12.72" fill="#AFB3B2"/>
</svg>
