<svg width="95" height="14" viewBox="0 0 95 14" fill="none" xmlns="http://www.w3.org/2000/svg">
<path d="M0 0.0224609L6.72641 6.74887L6.75305 6.77107L6.72641 6.80659L0.0443987 13.4797H1.22541L7.92962 6.77107L1.18101 0.0269008L0 0.0224609ZM5.33673 0.0224609L4.15128 0.0269008L10.8821 6.74887L10.8999 6.77107L10.8821 6.80659L4.20012 13.4797H5.38557L12.0898 6.77107L5.33673 0.0224609ZM6.23358 0.0224609L12.9556 6.74887L12.9822 6.77107L12.9556 6.80659L6.28242 13.4797H7.46343L14.1632 6.77107L7.41459 0.0224609H6.23358ZM8.307 0.0224609L15.0334 6.74887L15.0556 6.77107L15.0334 6.80659L8.35584 13.4797H9.53685C9.55887 13.4589 16.2677 6.74887 16.2677 6.74887L22.9941 0.0224609H21.8087L15.6728 6.15393L15.6506 6.18057L15.6239 6.15393L15.2288 5.76322L15.1977 5.73658L15.2288 5.70994L20.9162 0.0224609H19.7308L14.6116 5.14608L14.585 5.11944L14.1898 4.72873L14.1632 4.69765L18.8384 0.0269008H17.6574L13.6038 4.08051L13.5727 4.11158L13.5461 4.08051L13.1509 3.68536L13.1243 3.66316L13.1509 3.63652L16.7694 0.0269008L15.584 0.0224609L12.5648 3.04601L12.5338 3.06821L12.5071 3.04157L12.112 2.65087L12.0853 2.61979L12.112 2.59315L14.6827 0.0269008H13.5061L11.5215 1.9982L11.4993 2.02928L11.4726 1.9982L9.49245 0.0269008L8.307 0.0224609ZM2.07786 0.0269008L8.79983 6.74887L8.83091 6.77107L8.79983 6.80659L2.13114 13.4797H3.30771L10.0119 6.77107L3.25887 0.0269008H2.07786Z" fill="#AFB3B2"/>
<path d="M34.6353 1.61646C31.7698 1.61646 29.4407 3.94916 29.4407 6.81998C29.4407 9.68512 31.7698 12.0146 34.6353 12.0146C37.502 12.0146 39.83 9.68512 39.83 6.81998C39.83 3.94916 37.507 1.61646 34.6353 1.61646ZM45.1933 1.61646L42.0499 5.97197V1.62089H40.2695V11.837H42.0499V7.62804L45.0379 11.837H47.2756L43.4751 6.82886L47.4266 1.61646H45.1933ZM50.9607 1.61646C48.0911 1.61646 45.7616 3.94828 45.7616 6.8111C45.7591 9.68423 48.0911 12.0146 50.9607 12.0146C53.8312 12.0146 56.1625 9.68423 56.1598 6.8111C56.1598 3.94828 53.8275 1.61646 50.9607 1.61646ZM22.7009 1.70525L25.9198 8.10755V11.9258H27.6025V8.10755L30.8215 1.70525H28.9123L26.7634 6.11404L24.6101 1.70525H22.7009ZM56.6038 1.70525V11.9258H58.4242V7.79232H62.0915V11.9258H63.9074V1.70525H62.0915V6.03857H58.4242V1.70525H56.6038ZM68.0764 1.70525L64.3026 11.9258H66.2073L67.153 9.31519H70.8247L71.7571 11.9258H73.6707L69.8968 1.70525H68.0764ZM74.0525 1.70525V11.9258H75.8729L75.9039 5.24383L78.4613 11.9258H80.1573L82.7103 5.24383L82.7414 11.9258H84.5661V1.70525H84.0467H82.7058H82.3196L79.3138 9.54163L76.2947 1.70525H75.9039H74.5764H74.0525ZM88.8684 1.70525L85.0945 11.9258H87.0081L87.9449 9.31519H91.6167L92.5579 11.9258H94.4671L90.6976 1.70525H90.4978H88.9483H88.8684ZM50.9652 3.31249C52.899 3.31249 54.4593 4.88242 54.4594 6.8111C54.462 8.74636 52.8933 10.3142 50.9607 10.3142C49.0306 10.3142 47.4577 8.74636 47.4577 6.8111C47.4577 4.88242 49.0324 3.31249 50.9652 3.31249ZM34.6353 3.31693C36.569 3.31693 38.1339 4.88598 38.1339 6.81998C38.1339 8.74724 36.569 10.3186 34.6353 10.3186C32.7066 10.3186 31.1367 8.74724 31.1367 6.81998C31.1367 4.88598 32.7066 3.31693 34.6353 3.31693ZM89.783 4.40025L91.0661 7.88111H88.4954L89.783 4.40025ZM68.9822 4.40469L70.2697 7.88111H67.7035L68.9822 4.40469Z" fill="#6B6F6E"/>
</svg>
