<svg width="145" height="28" viewBox="0 0 145 28" fill="none" xmlns="http://www.w3.org/2000/svg">
<g clip-path="url(#clip0_18291_4096)">
<path d="M100.067 27.9487H136.334C140.654 27.9487 144.157 24.3637 144.157 19.9425V8.00625C144.157 3.585 140.654 0 136.334 0H100.067C95.7466 0 92.2437 3.585 92.2437 8.00625V19.9425C92.2437 24.3637 95.7466 27.9487 100.067 27.9487Z" fill="#0077FF"/>
<path d="M2.31052 8.2371C3.84922 6.66237 5.69689 5.875 7.87323 5.875C9.43409 5.875 10.8202 6.30207 12.0733 7.18014C13.3042 8.05821 14.2496 9.20588 14.8873 10.6458L11.7434 11.568C10.974 10.0373 9.61012 9.02447 7.87323 9.02447C6.59796 9.02447 5.52087 9.49689 4.64073 10.4644C3.73966 11.4319 3.29898 12.5796 3.29898 13.9301C3.29898 15.2806 3.73843 16.4282 4.64073 17.3731C5.51963 18.3406 6.59796 18.813 7.87323 18.813C9.61012 18.813 10.974 17.8228 11.6769 16.3829L14.8651 17.261C14.2275 18.6782 13.3042 19.8259 12.072 20.6813C10.8189 21.5367 9.43409 21.9638 7.872 21.9638C5.69566 21.9638 3.84799 21.1764 2.30929 19.6016C0.770583 18.0496 0 16.1586 0 13.9313C0.00246192 11.7015 0.771814 9.81184 2.31052 8.2371Z" fill="white"/>
<path d="M16.0112 15.7712C16.0112 14.0825 16.6048 12.6425 17.7713 11.4263C18.9365 10.2338 20.3667 9.625 22.0168 9.625C23.667 9.625 25.074 10.2325 26.2624 11.4263C27.4276 12.6413 28.0225 14.0825 28.0225 15.7712C28.0225 17.46 27.4289 18.9225 26.2624 20.1163C25.0972 21.3313 23.667 21.94 22.0168 21.94C20.3667 21.94 18.9597 21.3325 17.7933 20.1163C16.6048 18.9 16.0112 17.46 16.0112 15.7712ZM18.9804 15.7712C18.9804 16.6487 19.2663 17.3925 19.8599 18.0225C20.4535 18.6525 21.157 18.9675 22.0156 18.9675C22.8743 18.9675 23.5778 18.6525 24.1714 18.0225C24.765 17.3925 25.0508 16.6487 25.0508 15.7712C25.0508 14.8937 24.765 14.15 24.1714 13.52C23.5778 12.9125 22.8743 12.5975 22.0156 12.5975C21.157 12.5975 20.4535 12.9125 19.8599 13.52C19.2663 14.15 18.9804 14.8937 18.9804 15.7712Z" fill="white"/>
<path d="M32.7931 9.83266V10.9352C33.6725 10.0577 34.751 9.62891 36.0481 9.62891C37.3672 9.62891 38.5117 10.0564 39.457 10.9114C40.4024 11.7889 40.8873 12.9377 40.8873 14.3552V21.7614H37.6982V15.1889C37.6982 13.6802 36.6869 12.6677 35.3885 12.6677C34.6191 12.6677 33.9803 12.9377 33.5186 13.5002C33.0349 14.0627 32.7931 14.7602 32.7931 15.5939V21.7614H29.604V9.83266H32.7931Z" fill="white"/>
<path d="M42.0969 9.83258H44.0768V7.22133L47.2219 6.29883V9.83258H50.5869V12.6463H47.2219V17.7563C47.2219 18.3863 47.8155 18.8588 48.4091 18.8813C48.6949 18.9038 48.8708 18.9263 48.9148 18.9263C49.4204 18.9263 50.014 18.7913 50.7408 18.4988V21.6501C49.9053 21.8976 49.1346 22.0101 48.4091 22.0101C47.5077 22.0101 46.5611 21.7626 45.5718 21.2226C44.5825 20.6826 44.0756 19.5338 44.0756 17.7788V12.6463H42.0957V9.83258H42.0969Z" fill="white"/>
<path d="M53.6233 11.4077C54.7885 10.2152 56.1968 9.62891 57.8469 9.62891C59.2772 9.62891 60.5303 10.1014 61.6296 11.0252C62.7288 11.9477 63.4336 13.1189 63.7194 14.5364C63.8293 14.9864 63.8733 15.4139 63.8733 15.8414C63.8733 16.2464 63.8293 16.6289 63.7414 17.0114H54.9876C55.3394 18.3389 56.4399 19.0602 57.8469 19.0602C58.9682 19.0602 59.8708 18.7227 60.5963 18.0477L63.3676 18.8577C62.906 19.7802 62.1585 20.5239 61.1019 21.0864C60.0467 21.6489 58.9682 21.9414 57.8469 21.9414C56.1748 21.9414 54.7678 21.3339 53.6013 20.1177C52.4361 18.9252 51.8413 17.4839 51.8413 15.7952C51.8413 14.0639 52.4349 12.6014 53.6233 11.4077ZM54.9864 14.5377H60.639C60.2873 13.3902 59.2308 12.5114 57.8237 12.5114C57.1202 12.5114 56.5266 12.7139 56.0197 13.0964C55.5153 13.4789 55.1635 13.9739 54.9864 14.5377Z" fill="white"/>
<path d="M68.712 9.83266V10.9352C69.5914 10.0577 70.6699 9.62891 71.967 9.62891C73.2862 9.62891 74.4306 10.0564 75.376 10.9114C76.3213 11.7889 76.8062 12.9377 76.8062 14.3552V21.7614H73.6172V15.1889C73.6172 13.6802 72.6058 12.6677 71.3075 12.6677C70.538 12.6677 69.8992 12.9377 69.4375 13.5002C68.9539 14.0627 68.712 14.7602 68.712 15.5939V21.7614H65.5229V9.83266H68.712Z" fill="white"/>
<path d="M78.0159 9.83258H79.9958V7.22133L83.1409 6.29883V9.83258H86.5058V12.6463H83.1409V17.7563C83.1409 18.3863 83.7345 18.8588 84.3281 18.8813C84.6139 18.9038 84.7897 18.9263 84.8337 18.9263C85.3394 18.9263 85.933 18.7913 86.6597 18.4988V21.6501C85.8243 21.8976 85.0536 22.0101 84.3281 22.0101C83.4267 22.0101 82.4801 21.7626 81.4907 21.2226C80.5014 20.6826 79.9945 19.5338 79.9945 17.7788V12.6463H78.0146V9.83258H78.0159Z" fill="white"/>
<path d="M102.365 6.00488V10.9349C103.245 10.0574 104.323 9.62863 105.62 9.62863C106.939 9.62863 108.084 10.0561 109.029 10.9111C109.975 11.7886 110.46 12.9374 110.46 14.3549V21.7611H107.27V15.1886C107.27 13.6799 106.259 12.6674 104.961 12.6674C104.191 12.6674 103.553 12.9374 103.091 13.4999C102.607 14.0624 102.365 14.7599 102.365 15.5936V21.7611H99.1763V6.00488H102.365Z" fill="white"/>
<path d="M112.659 9.83203H115.848V16.4045C115.848 17.9133 116.86 18.9258 118.158 18.9258C118.927 18.9258 119.566 18.6333 120.05 18.0708C120.512 17.5083 120.753 16.8333 120.753 15.9995V9.83203H123.942V21.762H120.753V20.6595C119.874 21.537 118.795 21.9658 117.498 21.9658C116.179 21.9658 115.035 21.5383 114.089 20.6595C113.144 19.8045 112.659 18.6558 112.659 17.2383V9.83203Z" fill="white"/>
<path d="M126.362 6.00488H129.551V10.8674C130.431 10.0574 131.509 9.65238 132.762 9.62988C132.784 9.62988 132.806 9.62988 132.828 9.62988C134.435 9.62988 135.776 10.2149 136.876 11.4086C137.975 12.6011 138.526 14.0649 138.526 15.7986C138.526 17.4874 137.977 18.9499 136.898 20.1436C135.799 21.3361 134.413 21.9449 132.762 21.9449C131.509 21.9449 130.431 21.5624 129.551 20.7749V21.7649H126.362V6.00488ZM130.255 18.0261C130.87 18.6786 131.596 18.9936 132.455 18.9936C133.29 18.9936 134.017 18.6786 134.632 18.0261C135.248 17.3961 135.556 16.6524 135.556 15.7974C135.556 14.9199 135.248 14.1761 134.654 13.5236C134.039 12.8936 133.312 12.5786 132.455 12.5786C131.597 12.5786 130.87 12.8936 130.255 13.5461C129.639 14.1986 129.332 14.9424 129.332 15.7974C129.332 16.6524 129.639 17.3961 130.255 18.0261Z" fill="white"/>
</g>
<defs>
<clipPath id="clip0_18291_4096">
<rect width="144.125" height="28" fill="white"/>
</clipPath>
</defs>
</svg>
