<svg width="132" height="24" viewBox="0 0 132 24" fill="none" xmlns="http://www.w3.org/2000/svg">
<path d="M7.14264 19.1437C9.65434 19.1437 11.8521 17.9075 13.0294 15.9648L10.3215 14.395C9.73283 15.4546 8.53585 16.0826 7.14264 16.0826C4.70943 16.0826 3.13962 14.4539 3.13962 12.001C3.13962 9.54821 4.70943 7.91953 7.14264 7.91953C8.53585 7.91953 9.71321 8.54746 10.3215 9.60708L13.0294 8.03727C11.8325 6.09463 9.63472 4.8584 7.14264 4.8584C3.00226 4.8584 0 7.95878 0 12.001C0 16.0433 3.00226 19.1437 7.14264 19.1437Z" fill="white"/>
<path d="M19.208 19.1437C22.0925 19.1437 24.408 16.8871 24.408 13.9633C24.408 11.0395 22.0925 8.78293 19.208 8.78293C16.3234 8.78293 14.008 11.0395 14.008 13.9633C14.008 16.8871 16.3234 19.1437 19.208 19.1437ZM19.208 16.2788C17.9325 16.2788 16.9514 15.3565 16.9514 13.9633C16.9514 12.5701 17.9325 11.6478 19.208 11.6478C20.4834 11.6478 21.4646 12.5701 21.4646 13.9633C21.4646 15.3565 20.4834 16.2788 19.208 16.2788Z" fill="white"/>
<path d="M31.8223 8.78293C30.5272 8.78293 29.546 9.25387 29.0162 9.97991V9.05764H26.0728V18.869H29.0162V13.512C29.0162 12.1188 29.7619 11.4909 30.8411 11.4909C31.783 11.4909 32.5483 12.0599 32.5483 13.2765V18.869H35.4917V12.8448C35.4917 10.1958 33.8041 8.78293 31.8223 8.78293Z" fill="white"/>
<path d="M43.2624 11.8833V9.05764H41.2413V6.31047L38.2979 7.19349V9.05764H36.7281V11.8833H38.2979V15.3565C38.2979 18.1037 39.4164 19.2614 43.2624 18.869V16.2003C41.9673 16.2788 41.2413 16.2003 41.2413 15.3565V11.8833H43.2624Z" fill="white"/>
<path d="M47.3668 15.1407H54.3328C54.4113 14.7678 54.4505 14.3754 54.4505 13.9633C54.4505 11.0003 52.3313 8.78293 49.4664 8.78293C46.366 8.78293 44.2468 11.0395 44.2468 13.9633C44.2468 16.8871 46.3268 19.1437 49.6822 19.1437C51.5464 19.1437 52.9985 18.4569 53.96 17.1226L51.6052 15.7686C51.2128 16.2003 50.526 16.5142 49.7215 16.5142C48.6422 16.5142 47.7396 16.161 47.3668 15.1407ZM47.3079 12.9429C47.5826 11.9422 48.3283 11.3927 49.4468 11.3927C50.3298 11.3927 51.2128 11.8048 51.5268 12.9429H47.3079Z" fill="white"/>
<path d="M61.8694 8.78293C60.5743 8.78293 59.5932 9.25387 59.0634 9.97991V9.05764H56.12V18.869H59.0634V13.512C59.0634 12.1188 59.809 11.4909 60.8883 11.4909C61.8302 11.4909 62.5955 12.0599 62.5955 13.2765V18.869H65.5389V12.8448C65.5389 10.1958 63.8513 8.78293 61.8694 8.78293Z" fill="white"/>
<path d="M73.3096 11.8833V9.05764H71.2884V6.31047L68.345 7.19349V9.05764H66.7752V11.8833H68.345V15.3565C68.345 18.1037 69.4635 19.2614 73.3096 18.869V16.2003C72.0145 16.2788 71.2884 16.2003 71.2884 15.3565V11.8833H73.3096Z" fill="white"/>
<rect x="80.5552" width="51.3207" height="24" rx="4" fill="#E2FA0F"/>
<path d="M96.5683 8.63028C95.2732 8.63028 94.2921 9.10122 93.7622 9.82726V4.98047H90.8188V18.7163H93.7622V13.3593C93.7622 11.9661 94.5079 11.3382 95.5871 11.3382C96.529 11.3382 97.2943 11.9073 97.2943 13.1239V18.7163H100.238V12.6922C100.238 10.0431 98.5502 8.63028 96.5683 8.63028Z" fill="#292929"/>
<path d="M108.597 8.905V14.262C108.597 15.6552 107.851 16.2831 106.772 16.2831C105.83 16.2831 105.065 15.7141 105.065 14.4975V8.905H102.122V14.9291C102.122 17.5782 103.809 18.991 105.791 18.991C107.086 18.991 108.067 18.5201 108.597 17.7941V18.7163H111.541V8.905H108.597Z" fill="#292929"/>
<path d="M119.566 8.63028C118.252 8.63028 117.29 9.0816 116.643 9.82726V4.98047H113.699V18.7163H116.643V17.7941C117.29 18.5397 118.252 18.991 119.566 18.991C122.137 18.991 124.256 16.7344 124.256 13.8107C124.256 10.8869 122.137 8.63028 119.566 8.63028ZM118.978 16.2046C117.624 16.2046 116.643 15.2824 116.643 13.8107C116.643 12.339 117.624 11.4167 118.978 11.4167C120.332 11.4167 121.313 12.339 121.313 13.8107C121.313 15.2824 120.332 16.2046 118.978 16.2046Z" fill="#292929"/>
</svg>
