<svg width="18" height="18" viewBox="0 0 18 18" fill="none" xmlns="http://www.w3.org/2000/svg">
<path fill-rule="evenodd" clip-rule="evenodd" d="M8.99984 0.666992C3.86825 0.666992 1.56677 3.83802 0.992654 4.80405L2.42539 5.65554L0.992654 4.80405C0.748213 5.21535 0.666504 5.645 0.666504 6.01355V14.8337C0.666504 16.2144 1.78579 17.3337 3.1665 17.3337H3.99984H5.6665H12.3332H13.9998H14.8332C16.2139 17.3337 17.3332 16.2144 17.3332 14.8337V6.01355C17.3332 5.645 17.2515 5.21535 17.007 4.80405C16.4329 3.83802 14.1314 0.666992 8.99984 0.666992ZM2.42539 5.65554C2.8377 4.96179 4.68441 2.33366 8.99984 2.33366C13.3153 2.33366 15.162 4.96179 15.5743 5.65554C15.6388 5.76402 15.6665 5.88736 15.6665 6.01355V14.8337C15.6665 15.2939 15.2934 15.667 14.8332 15.667H13.9998V7.33366C13.9998 6.41318 13.2536 5.66699 12.3332 5.66699H5.6665C4.74603 5.66699 3.99984 6.41318 3.99984 7.33366V15.667H3.1665C2.70627 15.667 2.33317 15.2939 2.33317 14.8337V6.01355C2.33317 5.88736 2.36092 5.76402 2.42539 5.65554ZM12.3332 12.3337V10.667H5.6665V12.3337H12.3332ZM12.3332 14.0003H5.6665V15.667H12.3332V14.0003ZM12.3332 7.33366V9.00033H5.6665V7.33366H12.3332Z" fill="#ED815B"/>
</svg>
