<svg width="20" height="20" viewBox="0 0 20 20" fill="none" xmlns="http://www.w3.org/2000/svg">
<path fill-rule="evenodd" clip-rule="evenodd" d="M10.0003 3.33366C6.31843 3.33366 3.33366 6.31843 3.33366 10.0003C3.33366 13.6822 6.31843 16.667 10.0003 16.667C13.6822 16.667 16.667 13.6822 16.667 10.0003C16.667 6.31843 13.6822 3.33366 10.0003 3.33366ZM1.66699 10.0003C1.66699 5.39795 5.39795 1.66699 10.0003 1.66699C14.6027 1.66699 18.3337 5.39795 18.3337 10.0003C18.3337 14.6027 14.6027 18.3337 10.0003 18.3337C5.39795 18.3337 1.66699 14.6027 1.66699 10.0003ZM9.12549 6.58366C9.12549 6.12342 9.49858 5.75033 9.95882 5.75033H10.0422C10.5024 5.75033 10.8755 6.12342 10.8755 6.58366V6.66699C10.8755 7.12723 10.5024 7.50033 10.0422 7.50033H9.95882C9.49858 7.50033 9.12549 7.12723 9.12549 6.66699V6.58366ZM10.0003 8.33366C10.4606 8.33366 10.8337 8.70676 10.8337 9.16699L10.8337 13.3337C10.8337 13.7939 10.4606 14.167 10.0003 14.167C9.54009 14.167 9.16699 13.7939 9.16699 13.3337L9.16699 9.16699C9.16699 8.70676 9.54009 8.33366 10.0003 8.33366Z" fill="#0077FF"/>
</svg>
