<svg width="20" height="20" viewBox="0 0 20 20" fill="none" xmlns="http://www.w3.org/2000/svg">
<path fill-rule="evenodd" clip-rule="evenodd" d="M10.0001 3.33366C6.31818 3.33366 3.33341 6.31843 3.33341 10.0003C3.33341 13.6822 6.31818 16.667 10.0001 16.667C13.682 16.667 16.6667 13.6822 16.6667 10.0003C16.6667 6.31843 13.682 3.33366 10.0001 3.33366ZM1.66675 10.0003C1.66675 5.39795 5.39771 1.66699 10.0001 1.66699C14.6025 1.66699 18.3334 5.39795 18.3334 10.0003C18.3334 14.6027 14.6025 18.3337 10.0001 18.3337C5.39771 18.3337 1.66675 14.6027 1.66675 10.0003ZM9.12524 6.58366C9.12524 6.12342 9.49834 5.75033 9.95858 5.75033H10.0419C10.5021 5.75033 10.8752 6.12342 10.8752 6.58366V6.66699C10.8752 7.12723 10.5021 7.50033 10.0419 7.50033H9.95858C9.49834 7.50033 9.12524 7.12723 9.12524 6.66699V6.58366ZM10.0001 8.33366C10.4603 8.33366 10.8334 8.70676 10.8334 9.16699L10.8334 13.3337C10.8334 13.7939 10.4603 14.167 10.0001 14.167C9.53984 14.167 9.16675 13.7939 9.16675 13.3337L9.16675 9.16699C9.16675 8.70676 9.53984 8.33366 10.0001 8.33366Z" fill="#0077FF"/>
</svg>
