<svg width="20" height="20" viewBox="0 0 20 20" fill="none" xmlns="http://www.w3.org/2000/svg">
<path fill-rule="evenodd" clip-rule="evenodd" d="M9.16658 1.1852C9.68225 0.887484 10.3176 0.887483 10.8333 1.1852L10.4166 1.90689L10.8333 1.1852L17.2168 4.87075C17.7325 5.16847 18.0501 5.71868 18.0501 6.31412V13.6852C18.0501 14.2806 17.7325 14.8309 17.2168 15.1286L10.8333 18.8141C10.3176 19.1118 9.68225 19.1118 9.16659 18.8141L2.78304 15.1286C2.26737 14.8309 1.94971 14.2806 1.94971 13.6852V6.31412C1.94971 5.71868 2.26737 5.16847 2.78304 4.87075L9.16658 1.1852ZM16.3835 6.31412L9.99992 2.62858L3.61637 6.31412V13.6852L9.99992 17.3707L16.3835 13.6852V6.31412ZM9.99984 8.333C9.07936 8.333 8.33317 9.07919 8.33317 9.99966C8.33317 10.9201 9.07936 11.6663 9.99984 11.6663C10.9203 11.6663 11.6665 10.9201 11.6665 9.99966C11.6665 9.07919 10.9203 8.333 9.99984 8.333ZM6.6665 9.99966C6.6665 8.15871 8.15889 6.66633 9.99984 6.66633C11.8408 6.66633 13.3332 8.15871 13.3332 9.99966C13.3332 11.8406 11.8408 13.333 9.99984 13.333C8.15889 13.333 6.6665 11.8406 6.6665 9.99966Z" fill="#292929"/>
</svg>
