<svg width="21" height="20" viewBox="0 0 21 20" fill="none" xmlns="http://www.w3.org/2000/svg">
<path fill-rule="evenodd" clip-rule="evenodd" d="M6.33333 3.33366C6.33333 2.41318 7.07953 1.66699 8 1.66699H13C13.9205 1.66699 14.6667 2.41318 14.6667 3.33366V4.16699H17.1667C17.6269 4.16699 18 4.54009 18 5.00033C18 5.46056 17.6269 5.83366 17.1667 5.83366H16.3333V16.667C16.3333 17.5875 15.5871 18.3337 14.6667 18.3337H6.33333C5.41286 18.3337 4.66667 17.5875 4.66667 16.667V5.83366H3.83333C3.3731 5.83366 3 5.46056 3 5.00033C3 4.54009 3.3731 4.16699 3.83333 4.16699H6.33333V3.33366ZM8 4.16699H13V3.33366H8V4.16699ZM6.33333 5.83366V16.667H14.6667V5.83366H6.33333Z" fill="#F20D0D"/>
</svg>
